<?xml version="1.0" encoding="UTF-8"?><svg xmlns="http://www.w3.org/2000/svg" viewBox="0 0 425.2 64.96"><defs><style>.d{fill:#00b1c3;}.e{fill:#fff;}</style></defs><g id="a"/><g id="b"><g id="c"><g><path class="d" d="M425.16,63.26L405.59,1.31c-.12-.39-.48-.65-.88-.65h-19.35c-.4,0-.76,.26-.88,.65l-19.51,61.77-11.56-21.39c6.52-3.05,10.89-8.91,10.89-18.82,0-16.15-11.58-22.2-25.19-22.2h-23.43c-.42,0-.76,.34-.76,.76V63.53c0,.42,.34,.76,.76,.76h14.05c.42,0,.76-.34,.76-.76v-18.46h8.24l10.11,18.7c.17,.32,.51,.52,.87,.52h30.22c.41,0,.78-.27,.89-.67l2.75-9.6h22.94l2.75,9.6c.11,.4,.48,.67,.89,.67h14.26c.54,0,.92-.52,.76-1.03ZM330.48,13.99h7.36c7.46,0,10.54,3.1,10.54,8.88s-3.07,8.88-10.54,8.88h-7.36V13.99Zm56.9,26.71l7.65-26.71,7.65,26.71h-15.31Z"/><path class="d" d="M211.86,20.32l-12.16,12.16c5.85,1.44,10.47,4.41,10.47,9.51s-4.13,9.31-11.34,9.31c-5.25,0-9.01-2.79-11.29-6.67l-10.73,10.73c-.28,.28-.3,.72-.05,1.03,4.53,5.52,12.78,8.57,22.03,8.57,11.15,0,27.27-5.94,27.27-24.17,0-11.49-8.55-17.69-14.22-20.46Z"/><path class="e" d="M222.64,8.57c-4.53-5.52-12.78-8.57-22.03-8.57-11.15,0-27.27,5.94-27.27,24.17,0,11.49,8.55,17.69,14.22,20.46l12.16-12.16c-5.85-1.44-10.47-4.41-10.47-9.51s4.13-9.31,11.33-9.31c5.26,0,9.01,2.79,11.29,6.67l10.73-10.73c.28-.28,.3-.72,.05-1.03Z"/><path class="e" d="M94.96,41.69c6.52-3.05,10.89-8.91,10.89-18.82C105.85,6.72,94.28,.66,80.66,.66h-23.76c-.42,0-.76,.34-.76,.76V63.53c0,.42,.34,.76,.76,.76h14.05c.42,0,.76-.34,.76-.76v-18.46h8.57l10.11,18.7c.17,.32,.51,.52,.87,.52h14.91c.45,0,.74-.48,.52-.88l-11.74-21.72Zm-23.25-27.7h7.69c7.46,0,10.54,3.1,10.54,8.88s-3.07,8.88-10.54,8.88h-7.69V13.99Z"/><path class="e" d="M24.52,.66H.76c-.42,0-.76,.34-.76,.76V63.53c0,.42,.34,.76,.76,.76H14.81c.42,0,.76-.34,.76-.76v-17.8h8.29c15.57,0,25.85-6.39,25.85-22.54S38.14,.66,24.52,.66Zm-1.26,31.75h-7.69V13.99h7.69c7.46,0,10.54,3.43,10.54,9.21s-3.83,9.21-10.54,9.21Z"/><path class="e" d="M139.92,0c-18.51,0-28.5,13.39-28.5,32.48s9.99,32.48,28.5,32.48,28.5-13.39,28.5-32.48S158.44,0,139.92,0Zm0,51.3c-8.08,0-12.59-7.07-12.59-18.82s4.51-18.82,12.59-18.82,12.59,7.07,12.59,18.82-4.51,18.82-12.59,18.82Z"/><rect class="d" x="288.52" y=".66" width="15.58" height="63.63" rx=".76" ry=".76"/><path class="d" d="M256.91,.66h-23.43c-.42,0-.76,.34-.76,.76V63.53c0,.42,.34,.76,.76,.76h14.05c.42,0,.76-.34,.76-.76v-17.8h7.95c15.57,0,25.85-6.39,25.85-22.54S270.52,.66,256.91,.66Zm-1.26,31.75h-7.36V13.99h7.36c7.46,0,10.54,3.43,10.54,9.21s-3.83,9.21-10.54,9.21Z"/></g></g></g></svg>